<svg width="287" height="167" viewBox="0 0 287 167" fill="none" xmlns="http://www.w3.org/2000/svg">
<path d="M32.4519 48.92V77H25.6119V60.16L19.3319 77H13.8119L7.49186 60.12V77H0.651855V48.92H8.73186L16.6119 68.36L24.4119 48.92H32.4519Z" fill="white"/>
<path d="M58.4106 65.48C58.4106 66.12 58.3706 66.7867 58.2906 67.48H42.8106C42.9173 68.8667 43.3573 69.9333 44.1306 70.68C44.9306 71.4 45.9039 71.76 47.0506 71.76C48.7573 71.76 49.9439 71.04 50.6106 69.6H57.8906C57.5173 71.0667 56.8373 72.3867 55.8506 73.56C54.8906 74.7333 53.6773 75.6533 52.2106 76.32C50.7439 76.9867 49.1039 77.32 47.2906 77.32C45.1039 77.32 43.1573 76.8533 41.4506 75.92C39.7439 74.9867 38.4106 73.6533 37.4506 71.92C36.4906 70.1867 36.0106 68.16 36.0106 65.84C36.0106 63.52 36.4773 61.4933 37.4106 59.76C38.3706 58.0267 39.7039 56.6933 41.4106 55.76C43.1173 54.8267 45.0773 54.36 47.2906 54.36C49.4506 54.36 51.3706 54.8133 53.0506 55.72C54.7306 56.6267 56.0373 57.92 56.9706 59.6C57.9306 61.28 58.4106 63.24 58.4106 65.48ZM51.4106 63.68C51.4106 62.5067 51.0106 61.5733 50.2106 60.88C49.4106 60.1867 48.4106 59.84 47.2106 59.84C46.0639 59.84 45.0906 60.1733 44.2906 60.84C43.5173 61.5067 43.0373 62.4533 42.8506 63.68H51.4106Z" fill="white"/>
<path d="M60.659 65.84C60.659 63.52 61.1257 61.4933 62.059 59.76C63.019 58.0267 64.339 56.6933 66.019 55.76C67.7257 54.8267 69.6724 54.36 71.859 54.36C74.659 54.36 76.9924 55.0933 78.859 56.56C80.7524 58.0267 81.9924 60.0933 82.579 62.76H75.299C74.6857 61.0533 73.499 60.2 71.739 60.2C70.4857 60.2 69.4857 60.6933 68.739 61.68C67.9924 62.64 67.619 64.0267 67.619 65.84C67.619 67.6533 67.9924 69.0533 68.739 70.04C69.4857 71 70.4857 71.48 71.739 71.48C73.499 71.48 74.6857 70.6267 75.299 68.92H82.579C81.9924 71.5333 80.7524 73.5867 78.859 75.08C76.9657 76.5733 74.6324 77.32 71.859 77.32C69.6724 77.32 67.7257 76.8533 66.019 75.92C64.339 74.9867 63.019 73.6533 62.059 71.92C61.1257 70.1867 60.659 68.16 60.659 65.84Z" fill="white"/>
<path d="M99.9578 54.44C102.518 54.44 104.571 55.2933 106.118 57C107.664 58.68 108.438 61 108.438 63.96V77H101.638V64.88C101.638 63.3867 101.251 62.2267 100.478 61.4C99.7045 60.5733 98.6645 60.16 97.3578 60.16C96.0511 60.16 95.0111 60.5733 94.2378 61.4C93.4645 62.2267 93.0778 63.3867 93.0778 64.88V77H86.2378V47.4H93.0778V57.68C93.7711 56.6933 94.7178 55.9067 95.9178 55.32C97.1178 54.7333 98.4645 54.44 99.9578 54.44Z" fill="white"/>
<path d="M111.831 65.8C111.831 63.5067 112.258 61.4933 113.111 59.76C113.991 58.0267 115.178 56.6933 116.671 55.76C118.164 54.8267 119.831 54.36 121.671 54.36C123.244 54.36 124.618 54.68 125.791 55.32C126.991 55.96 127.911 56.8 128.551 57.84V54.68H135.391V77H128.551V73.84C127.884 74.88 126.951 75.72 125.751 76.36C124.578 77 123.204 77.32 121.631 77.32C119.818 77.32 118.164 76.8533 116.671 75.92C115.178 74.96 113.991 73.6133 113.111 71.88C112.258 70.12 111.831 68.0933 111.831 65.8ZM128.551 65.84C128.551 64.1333 128.071 62.7867 127.111 61.8C126.178 60.8133 125.031 60.32 123.671 60.32C122.311 60.32 121.151 60.8133 120.191 61.8C119.258 62.76 118.791 64.0933 118.791 65.8C118.791 67.5067 119.258 68.8667 120.191 69.88C121.151 70.8667 122.311 71.36 123.671 71.36C125.031 71.36 126.178 70.8667 127.111 69.88C128.071 68.8933 128.551 67.5467 128.551 65.84Z" fill="white"/>
<path d="M153.939 54.44C156.553 54.44 158.633 55.2933 160.179 57C161.753 58.68 162.539 61 162.539 63.96V77H155.739V64.88C155.739 63.3867 155.353 62.2267 154.579 61.4C153.806 60.5733 152.766 60.16 151.459 60.16C150.153 60.16 149.113 60.5733 148.339 61.4C147.566 62.2267 147.179 63.3867 147.179 64.88V77H140.339V54.68H147.179V57.64C147.873 56.6533 148.806 55.88 149.979 55.32C151.153 54.7333 152.473 54.44 153.939 54.44Z" fill="white"/>
<path d="M174.132 48.92V77H167.292V48.92H174.132Z" fill="white"/>
<path d="M177.729 65.84C177.729 63.52 178.196 61.4933 179.129 59.76C180.089 58.0267 181.409 56.6933 183.089 55.76C184.796 54.8267 186.743 54.36 188.929 54.36C191.729 54.36 194.063 55.0933 195.929 56.56C197.823 58.0267 199.063 60.0933 199.649 62.76H192.369C191.756 61.0533 190.569 60.2 188.809 60.2C187.556 60.2 186.556 60.6933 185.809 61.68C185.063 62.64 184.689 64.0267 184.689 65.84C184.689 67.6533 185.063 69.0533 185.809 70.04C186.556 71 187.556 71.48 188.809 71.48C190.569 71.48 191.756 70.6267 192.369 68.92H199.649C199.063 71.5333 197.823 73.5867 195.929 75.08C194.036 76.5733 191.703 77.32 188.929 77.32C186.743 77.32 184.796 76.8533 183.089 75.92C181.409 74.9867 180.089 73.6533 179.129 71.92C178.196 70.1867 177.729 68.16 177.729 65.84Z" fill="white"/>
<path d="M159.554 18.0013L158 19.4932L161.419 24.0898C161.563 24.2834 161.753 24.4411 161.974 24.5499C162.194 24.6586 162.438 24.7152 162.686 24.715H162.795C162.999 24.7148 163.201 24.7533 163.39 24.8283C163.579 24.9034 163.75 25.0134 163.895 25.1521L168.052 29.143L163.985 33.1025C163.289 32.9059 162.556 32.8677 161.842 32.9908C161.128 33.1139 160.454 33.3949 159.873 33.8116C159.292 34.2284 158.821 34.7693 158.495 35.3915C158.17 36.0137 158.001 36.7001 158 37.3963C158.001 38.0377 158.145 38.6714 158.424 39.2546C158.702 39.8377 159.108 40.3566 159.613 40.776C160.119 41.1955 160.712 41.5058 161.354 41.6858C161.995 41.8659 162.669 41.9115 163.331 41.8196C163.992 41.7277 164.625 41.5004 165.187 41.1531C165.748 40.8059 166.226 40.3468 166.587 39.8069C166.948 39.267 167.183 38.659 167.278 38.024C167.373 37.3891 167.324 36.742 167.135 36.1266L171.26 32.2223L172.765 33.6665L172.291 35.0301C172.199 35.2929 172.186 35.5749 172.253 35.8445C172.319 36.114 172.463 36.3605 172.667 36.5563L177.882 41.5632C178.174 41.8429 178.569 42 178.981 42C179.393 42 179.789 41.8429 180.08 41.5632L182.545 39.197C182.836 38.9172 183 38.5378 183 38.1422C183 37.7466 182.836 37.3672 182.545 37.0874L177.329 32.0806C177.125 31.8846 176.868 31.7471 176.588 31.6833C176.307 31.6195 176.013 31.6321 175.739 31.7195L174.319 32.1745L172.827 30.7423L176.992 26.7992C177.683 26.9762 178.407 26.9986 179.108 26.8645C179.81 26.7305 180.47 26.4436 181.037 26.026C181.605 25.6084 182.065 25.0712 182.382 24.4559C182.699 23.8406 182.865 23.1636 182.867 22.4771C182.867 22.0758 182.812 21.6864 182.708 21.3179L179.382 24.5121L176.65 23.969L176.084 21.3477L179.412 18.1535C178.62 17.9492 177.787 17.9488 176.995 18.1524C176.203 18.356 175.481 18.7563 174.902 19.3131C174.323 19.8698 173.907 20.5633 173.696 21.3236C173.485 22.0839 173.486 22.8842 173.7 23.6438L169.597 27.6391L165.449 23.6602C165.158 23.3805 164.994 23.001 164.994 22.6054V22.4995C164.994 22.2619 164.935 22.0277 164.821 21.8165C164.708 21.6053 164.544 21.4231 164.343 21.285L159.554 18.0013ZM174.546 33.8843C174.618 33.8148 174.704 33.7597 174.798 33.7221C174.892 33.6845 174.994 33.6651 175.096 33.6651C175.198 33.6651 175.299 33.6845 175.394 33.7221C175.488 33.7597 175.574 33.8148 175.646 33.8843L180.309 38.36C180.381 38.4294 180.438 38.5117 180.477 38.6024C180.516 38.693 180.536 38.7901 180.536 38.8882C180.536 38.9863 180.516 39.0834 180.477 39.174C180.438 39.2646 180.381 39.347 180.309 39.4163C180.236 39.4857 180.15 39.5407 180.056 39.5782C179.962 39.6158 179.861 39.6351 179.758 39.6351C179.656 39.6351 179.555 39.6158 179.461 39.5782C179.366 39.5407 179.28 39.4857 179.208 39.4163L174.546 34.9406C174.473 34.8713 174.416 34.789 174.377 34.6983C174.338 34.6077 174.317 34.5105 174.317 34.4124C174.317 34.3143 174.338 34.2172 174.377 34.1265C174.416 34.0359 174.473 33.9536 174.546 33.8843ZM162.663 34.4124L163.395 34.7735L164.217 34.8123L164.663 35.4762L165.354 35.9043L165.395 36.6936L165.771 37.3963L165.395 38.099L165.354 38.8882L164.663 39.3164L164.217 39.9803L163.395 40.0191L162.663 40.3801L161.93 40.0191L161.108 39.9803L160.662 39.3164L159.971 38.8882L159.93 38.099L159.554 37.3963L159.93 36.6936L159.971 35.9043L160.662 35.4762L161.108 34.8123L161.93 34.7735L162.663 34.4124Z" fill="white"/>
<g filter="url(#filter0_d)">
<path fill-rule="evenodd" clip-rule="evenodd" d="M170 46C178.837 46 186 38.8366 186 30C186 21.1634 178.837 14 170 14C161.163 14 154 21.1634 154 30C154 38.8366 161.163 46 170 46ZM170 47C179.389 47 187 39.3888 187 30C187 20.6112 179.389 13 170 13C160.611 13 153 20.6112 153 30C153 39.3888 160.611 47 170 47Z" fill="white"/>
</g>
<defs>
<filter id="filter0_d" x="53" y="-67" width="234" height="234" filterUnits="userSpaceOnUse" color-interpolation-filters="sRGB">
<feFlood flood-opacity="0" result="BackgroundImageFix"/>
<feColorMatrix in="SourceAlpha" type="matrix" values="0 0 0 0 0 0 0 0 0 0 0 0 0 0 0 0 0 0 127 0"/>
<feOffset dy="20"/>
<feGaussianBlur stdDeviation="50"/>
<feColorMatrix type="matrix" values="0 0 0 0 0 0 0 0 0 0 0 0 0 0 0 0 0 0 1 0"/>
<feBlend mode="normal" in2="BackgroundImageFix" result="effect1_dropShadow"/>
<feBlend mode="normal" in="SourceGraphic" in2="effect1_dropShadow" result="shape"/>
</filter>
</defs>
</svg>
